# xmcd CD database file
#
# Track frame offsets:
#	150
#	16257
#	29230
#	43767
#	54470
#	65412
#	80597
#	92760
#	105872
#	123150
#	134280
#	157692
#	170130
#	184282
#	195109
#
# Disc length: 2882 seconds
#
# Revision: 0
# Processed by: cddbd v1.5.2PL0 Copyright (c) Steve Scherf et al.
# Submitted via: CDex 1.51
#
DISCID=be0b400f
DTITLE=Cold Season - Misty Blue
DYEAR=1900
DGENRE=Country
TTITLE0=Once You Learn
TTITLE1=I've Got My Baby On My Mind
TTITLE2=There Goes My Heart
TTITLE3=What A Way To Live
TTITLE4=Pocket Of A Clown
TTITLE5=Born To Love You
TTITLE6=Linda
TTITLE7=Just Call Me Lonesome
TTITLE8=I'll Cry Tomorrow
TTITLE9=Someone Had To Teach You
TTITLE10=You're Not Alone
TTITLE11=My Next Broken Heart
TTITLE12=The Writing On The Wall
TTITLE13=Take These Chains From My Heart
TTITLE14=Deep River Woman
EXTD=
EXTT0=
EXTT1=
EXTT2=
EXTT3=
EXTT4=
EXTT5=
EXTT6=
EXTT7=
EXTT8=
EXTT9=
EXTT10=
EXTT11=
EXTT12=
EXTT13=
EXTT14=
PLAYORDER=
